<svg width="414" height="539" viewBox="0 0 414 539" fill="none" xmlns="http://www.w3.org/2000/svg">
<path d="M265.648 537.035L265.553 537.074L265.464 537.126C230.242 557.583 197.435 558.136 173.573 544.857C149.743 531.596 134.468 504.339 134.653 468.355C138.754 447.835 139.752 433.003 135.086 421.881C130.355 410.599 119.98 403.501 102.456 397.945C22.4039 366.258 -23.8166 273.815 16.1218 189.354C33.6565 154.284 59.3482 128.278 90.4873 113.698C121.624 99.118 158.308 95.9141 197.918 106.616L197.922 106.617C222.79 113.263 241.439 115.922 256.859 110.72C272.371 105.486 284.259 92.438 295.998 68.6821C325.502 14.2234 376.81 -4.55093 423.932 3.15366C471.103 10.8661 514.037 45.1012 526.745 96.7465C530.56 120.437 530.685 132.587 526.757 151.63C518.437 181.855 516.933 203.319 524.875 220.327C532.823 237.349 550.047 249.512 578.064 261.659C633.082 288.279 674.531 347.13 682.216 413.186C689.89 479.138 663.909 552.355 583.886 607.809C540.801 629.45 495.052 637.501 451 629.427C406.939 621.352 364.461 597.125 327.961 554.013C318.022 540.613 309.037 533.516 299.066 531.28C289.124 529.05 278.542 531.738 265.648 537.035Z" stroke="white" stroke-opacity="0.6" stroke-width="3"/>
</svg>
