<svg width="555" height="346" viewBox="0 0 555 346" fill="none" xmlns="http://www.w3.org/2000/svg">
<path d="M265.259 537.036L265.164 537.075L265.075 537.126C229.905 557.583 197.147 558.135 173.322 544.858C149.527 531.597 134.274 504.34 134.459 468.355C138.553 447.834 139.55 433.003 134.892 421.881C130.167 410.6 119.807 403.502 102.308 397.945C22.3745 366.259 -23.7804 273.816 16.1007 189.353C33.61 154.282 59.2641 128.278 90.3569 113.697C121.448 99.118 158.077 95.9142 197.628 106.616L197.632 106.617C222.464 113.263 241.087 115.923 256.486 110.719C271.976 105.486 283.847 92.4368 295.569 68.6815C325.029 14.2224 376.261 -4.55064 423.313 3.15361C470.413 10.8658 513.285 45.0998 525.974 96.7461C529.784 120.437 529.908 132.587 525.986 151.632C517.678 181.856 516.177 203.319 524.106 220.326C532.043 237.348 549.242 249.512 577.219 261.659C632.156 288.278 673.544 347.129 681.218 413.186C688.881 479.139 662.938 552.356 583.032 607.81C540.01 629.45 494.329 637.5 450.343 629.427C406.347 621.352 363.932 597.126 327.485 554.014C317.56 540.615 308.588 533.516 298.631 531.28C288.701 529.049 278.134 531.738 265.259 537.036Z" stroke="white" stroke-opacity="0.6" stroke-width="3"/>
</svg>
