<svg width="280" height="279" viewBox="0 0 280 279" fill="none" xmlns="http://www.w3.org/2000/svg">
<g filter="url(#filter0_d_57_293)">
<path d="M53 47L60 71.5L34 70.5L46 93L20.5 97.5L36.5 117L14 126.5L34 142L15.5 157.5L38 166.5L23.5 187L47.5 190.5L38 213L63 211.5L59 235.5L82.5 227.5L84 252.5L105 239L113 262L129.5 243.5L142.5 264.5L154.5 243.5L173 260.5L179.5 237.5L201.5 249.5V224L226 231.5L220 207L245 208L234 186L259 181.5L243 162L265.5 151.5L245.5 136.5L263.5 121.5L241 112L256.5 92.5L231.5 88.5L241 66.5L216.5 67.5L220.5 43.5L197.5 51.5L196 26L174.5 40.5L167 17L150 35.5L137.5 14L124 35.5L106.5 18L100 41.5L78.5 30L77.5 54.5L53 47Z" fill="white"/>
</g>
<path d="M112.593 72.4453H125.533V88.6055C123.988 89.1387 122.218 89.5762 120.222 89.918C118.226 90.2461 116.134 90.4102 113.946 90.4102C111.062 90.4102 108.532 89.8496 106.358 88.7285C104.185 87.6074 102.489 85.9053 101.272 83.6221C100.056 81.3252 99.4473 78.4268 99.4473 74.9268C99.4473 71.7822 100.049 69.0684 101.252 66.7852C102.455 64.4883 104.226 62.7178 106.563 61.4736C108.915 60.2158 111.793 59.5869 115.197 59.5869C117.07 59.5869 118.848 59.7646 120.529 60.1201C122.211 60.4756 123.674 60.9268 124.918 61.4736L122.354 67.8311C121.274 67.2979 120.153 66.9014 118.991 66.6416C117.829 66.3682 116.578 66.2314 115.238 66.2314C113.447 66.2314 112.005 66.6348 110.911 67.4414C109.831 68.248 109.045 69.3281 108.553 70.6816C108.061 72.0215 107.814 73.5049 107.814 75.1318C107.814 76.9912 108.074 78.5635 108.594 79.8486C109.127 81.1201 109.899 82.0908 110.911 82.7607C111.937 83.417 113.174 83.7451 114.623 83.7451C115.102 83.7451 115.683 83.7109 116.366 83.6426C117.063 83.5742 117.59 83.4922 117.945 83.3965V78.7002H112.593V72.4453ZM141.632 66.3545C143.888 66.3545 145.836 66.751 147.477 67.5439C149.117 68.3232 150.382 69.499 151.271 71.0713C152.159 72.6436 152.604 74.6123 152.604 76.9775V80.5459H138.269C138.337 81.7627 138.788 82.7607 139.622 83.54C140.47 84.3193 141.714 84.709 143.354 84.709C144.804 84.709 146.13 84.5654 147.333 84.2783C148.55 83.9912 149.801 83.5469 151.086 82.9453V88.708C149.965 89.2959 148.741 89.7266 147.415 90C146.089 90.2734 144.414 90.4102 142.391 90.4102C140.053 90.4102 137.961 89.9932 136.115 89.1592C134.27 88.3252 132.813 87.0332 131.747 85.2832C130.694 83.5332 130.168 81.2842 130.168 78.5361C130.168 75.7471 130.646 73.457 131.604 71.666C132.561 69.8613 133.9 68.5283 135.623 67.667C137.346 66.792 139.349 66.3545 141.632 66.3545ZM141.919 71.8096C140.976 71.8096 140.183 72.1104 139.54 72.7119C138.911 73.2998 138.542 74.2295 138.433 75.501H145.323C145.31 74.8174 145.173 74.1953 144.913 73.6348C144.653 73.0742 144.271 72.6299 143.765 72.3018C143.272 71.9736 142.657 71.8096 141.919 71.8096ZM168.518 84.0732C169.242 84.0732 169.905 83.998 170.507 83.8477C171.108 83.6973 171.737 83.5059 172.394 83.2734V89.1182C171.519 89.501 170.589 89.8086 169.604 90.041C168.634 90.2871 167.39 90.4102 165.872 90.4102C164.368 90.4102 163.042 90.1777 161.894 89.7129C160.745 89.2344 159.85 88.4141 159.207 87.252C158.578 86.0762 158.264 84.4424 158.264 82.3506V72.7734H155.454V69.5127L159.022 66.9902L161.094 62.1094H166.344V66.7646H172.045V72.7734H166.344V81.8174C166.344 82.5693 166.535 83.1367 166.918 83.5195C167.301 83.8887 167.834 84.0732 168.518 84.0732ZM100.613 121.727C100.613 123.741 100.105 125.654 99.0898 127.465C98.0742 129.259 96.4915 130.715 94.3418 131.832C92.209 132.949 89.4499 133.508 86.0645 133.508C84.3717 133.508 82.8822 133.432 81.5957 133.279C80.3262 133.127 79.1413 132.882 78.041 132.543C76.9408 132.188 75.7982 131.73 74.6133 131.172V122.234C76.6276 123.25 78.6589 124.029 80.707 124.57C82.7552 125.095 84.6087 125.357 86.2676 125.357C87.2663 125.357 88.0788 125.239 88.7051 125.002C89.3483 124.765 89.8223 124.443 90.127 124.037C90.4316 123.614 90.584 123.132 90.584 122.59C90.584 121.947 90.3555 121.405 89.8984 120.965C89.4583 120.508 88.7474 120.034 87.7656 119.543C86.7839 119.052 85.4889 118.443 83.8809 117.715C82.5098 117.072 81.2656 116.411 80.1484 115.734C79.0482 115.057 78.1003 114.287 77.3047 113.424C76.526 112.544 75.9251 111.52 75.502 110.352C75.0788 109.184 74.8672 107.804 74.8672 106.213C74.8672 103.826 75.4512 101.829 76.6191 100.221C77.804 98.5957 79.446 97.377 81.5449 96.5645C83.6608 95.752 86.0983 95.3457 88.8574 95.3457C91.278 95.3457 93.4531 95.6165 95.3828 96.1582C97.3294 96.6999 99.0729 97.3177 100.613 98.0117L97.541 105.756C95.9499 105.028 94.3841 104.452 92.8438 104.029C91.3034 103.589 89.873 103.369 88.5527 103.369C87.6895 103.369 86.9785 103.479 86.4199 103.699C85.8783 103.902 85.472 104.182 85.2012 104.537C84.9473 104.893 84.8203 105.299 84.8203 105.756C84.8203 106.331 85.0404 106.848 85.4805 107.305C85.9375 107.762 86.6908 108.261 87.7402 108.803C88.8066 109.327 90.2539 110.013 92.082 110.859C93.8932 111.672 95.4336 112.552 96.7031 113.5C97.9727 114.431 98.9375 115.557 99.5977 116.877C100.275 118.18 100.613 119.797 100.613 121.727ZM119.809 103.725C123.448 103.725 126.292 104.63 128.34 106.441C130.388 108.236 131.412 110.8 131.412 114.135V133H124.531L122.627 129.191H122.424C121.611 130.207 120.773 131.036 119.91 131.68C119.064 132.306 118.09 132.763 116.99 133.051C115.89 133.355 114.544 133.508 112.953 133.508C111.294 133.508 109.805 133.169 108.484 132.492C107.164 131.815 106.123 130.791 105.361 129.42C104.6 128.049 104.219 126.314 104.219 124.215C104.219 121.134 105.285 118.849 107.418 117.359C109.551 115.87 112.64 115.032 116.686 114.846L121.484 114.693V114.287C121.484 113.001 121.163 112.087 120.52 111.545C119.893 111.003 119.047 110.732 117.98 110.732C116.846 110.732 115.577 110.936 114.172 111.342C112.784 111.731 111.387 112.239 109.982 112.865L107.113 106.314C108.772 105.468 110.651 104.825 112.75 104.385C114.849 103.945 117.202 103.725 119.809 103.725ZM121.535 120.152L119.25 120.254C117.422 120.322 116.135 120.643 115.391 121.219C114.663 121.777 114.299 122.581 114.299 123.631C114.299 124.613 114.561 125.34 115.086 125.814C115.611 126.271 116.305 126.5 117.168 126.5C118.37 126.5 119.394 126.119 120.24 125.357C121.104 124.596 121.535 123.605 121.535 122.387V120.152ZM145.707 133L134.738 104.232H145.098L149.973 121.244C150.023 121.396 150.108 121.786 150.227 122.412C150.362 123.038 150.43 123.622 150.43 124.164H150.607C150.607 123.589 150.667 123.038 150.785 122.514C150.904 121.989 150.997 121.583 151.064 121.295L156.168 104.232H166.502L155.533 133H145.707ZM182.904 103.725C185.697 103.725 188.109 104.215 190.141 105.197C192.172 106.162 193.738 107.618 194.838 109.564C195.938 111.511 196.488 113.949 196.488 116.877V121.295H178.74C178.825 122.801 179.383 124.037 180.416 125.002C181.465 125.967 183.006 126.449 185.037 126.449C186.831 126.449 188.473 126.271 189.963 125.916C191.469 125.561 193.018 125.01 194.609 124.266V131.4C193.221 132.128 191.706 132.661 190.064 133C188.423 133.339 186.349 133.508 183.844 133.508C180.949 133.508 178.359 132.992 176.074 131.959C173.789 130.926 171.986 129.327 170.666 127.16C169.363 124.993 168.711 122.209 168.711 118.807C168.711 115.354 169.303 112.518 170.488 110.301C171.673 108.066 173.332 106.416 175.465 105.35C177.598 104.266 180.077 103.725 182.904 103.725ZM183.26 110.479C182.092 110.479 181.11 110.851 180.314 111.596C179.536 112.324 179.079 113.475 178.943 115.049H187.475C187.458 114.202 187.288 113.432 186.967 112.738C186.645 112.044 186.171 111.494 185.545 111.088C184.936 110.682 184.174 110.479 183.26 110.479Z" fill="#0B1A48"/>
<path d="M117.377 202H74.8955V191.59L89.1895 177.136C92.1523 174.039 94.4479 171.557 96.0762 169.688C97.7311 167.82 98.8923 166.232 99.5596 164.924C100.227 163.616 100.561 162.255 100.561 160.84C100.561 159.105 100 157.85 98.8789 157.076C97.7578 156.302 96.4365 155.915 94.915 155.915C93.0732 155.915 91.2048 156.449 89.3096 157.517C87.4411 158.558 85.319 160.106 82.9434 162.161L74.2549 151.991C76.0166 150.416 77.8851 148.922 79.8604 147.507C81.8356 146.065 84.1712 144.891 86.8672 143.983C89.5632 143.076 92.8464 142.622 96.7168 142.622C100.694 142.622 104.137 143.316 107.047 144.704C109.983 146.092 112.252 148.001 113.854 150.43C115.455 152.832 116.256 155.568 116.256 158.638C116.256 162.028 115.629 165.057 114.374 167.727C113.146 170.369 111.291 173.025 108.809 175.694C106.326 178.337 103.23 181.34 99.5195 184.703L95.2354 188.547V188.947H117.377V202ZM165.664 172.812C165.664 177.509 165.29 181.714 164.543 185.424C163.796 189.107 162.594 192.244 160.939 194.833C159.311 197.422 157.149 199.397 154.453 200.759C151.757 202.12 148.447 202.801 144.523 202.801C139.639 202.801 135.635 201.613 132.512 199.237C129.389 196.835 127.08 193.405 125.585 188.947C124.117 184.463 123.383 179.084 123.383 172.812C123.383 166.485 124.05 161.08 125.385 156.596C126.746 152.085 128.975 148.628 132.071 146.226C135.168 143.823 139.318 142.622 144.523 142.622C149.408 142.622 153.399 143.823 156.495 146.226C159.618 148.601 161.927 152.045 163.422 156.556C164.917 161.04 165.664 166.459 165.664 172.812ZM139.118 172.812C139.118 176.629 139.252 179.832 139.519 182.421C139.812 185.01 140.346 186.959 141.12 188.267C141.921 189.548 143.055 190.188 144.523 190.188C145.992 190.188 147.113 189.548 147.887 188.267C148.661 186.959 149.195 185.023 149.488 182.461C149.782 179.872 149.929 176.655 149.929 172.812C149.929 168.941 149.782 165.711 149.488 163.122C149.195 160.533 148.661 158.584 147.887 157.276C147.113 155.942 145.992 155.274 144.523 155.274C143.055 155.274 141.921 155.942 141.12 157.276C140.346 158.584 139.812 160.533 139.519 163.122C139.252 165.711 139.118 168.941 139.118 172.812Z" fill="#FCB614"/>
<path d="M182.399 141.69C184.975 141.69 187.041 142.589 188.599 144.386C190.171 146.183 190.957 148.706 190.957 151.955C190.957 155.204 190.223 157.743 188.756 159.569C187.288 161.396 185.17 162.31 182.399 162.31C179.884 162.31 177.855 161.396 176.312 159.569C174.785 157.743 174.021 155.204 174.021 151.955C174.021 148.706 174.74 146.183 176.178 144.386C177.63 142.589 179.704 141.69 182.399 141.69ZM182.489 147.171C181.845 147.171 181.396 147.613 181.142 148.496C180.902 149.365 180.782 150.548 180.782 152.045C180.782 153.512 180.902 154.695 181.142 155.594C181.396 156.477 181.845 156.919 182.489 156.919C183.133 156.919 183.575 156.485 183.814 155.616C184.054 154.733 184.174 153.542 184.174 152.045C184.174 150.548 184.054 149.365 183.814 148.496C183.575 147.613 183.133 147.171 182.489 147.171ZM207.331 142.162L189.115 175H182.444L200.66 142.162H207.331ZM207.376 154.763C209.951 154.763 212.018 155.661 213.575 157.458C215.147 159.255 215.934 161.778 215.934 165.027C215.934 168.262 215.2 170.792 213.732 172.619C212.265 174.446 210.146 175.359 207.376 175.359C204.86 175.359 202.831 174.446 201.289 172.619C199.762 170.792 198.998 168.262 198.998 165.027C198.998 161.778 199.717 159.255 201.154 157.458C202.607 155.661 204.681 154.763 207.376 154.763ZM207.466 160.243C206.822 160.243 206.373 160.685 206.118 161.568C205.879 162.437 205.759 163.62 205.759 165.117C205.759 166.585 205.879 167.768 206.118 168.666C206.373 169.549 206.822 169.991 207.466 169.991C208.11 169.991 208.551 169.557 208.791 168.688C209.046 167.805 209.173 166.615 209.173 165.117C209.173 163.56 209.046 162.362 208.791 161.523C208.551 160.67 208.11 160.243 207.466 160.243ZM192.875 191.547C192.875 193.307 192.661 194.911 192.234 196.359C191.818 197.797 191.161 199.036 190.266 200.078C189.37 201.12 188.219 201.922 186.812 202.484C185.406 203.036 183.724 203.312 181.766 203.312C179.849 203.312 178.188 203.036 176.781 202.484C175.385 201.922 174.234 201.125 173.328 200.094C172.422 199.052 171.75 197.807 171.312 196.359C170.875 194.911 170.656 193.297 170.656 191.516C170.656 189.141 171.047 187.078 171.828 185.328C172.62 183.568 173.839 182.208 175.484 181.25C177.13 180.281 179.234 179.797 181.797 179.797C184.401 179.797 186.516 180.281 188.141 181.25C189.776 182.219 190.974 183.583 191.734 185.344C192.495 187.104 192.875 189.172 192.875 191.547ZM177.156 191.547C177.156 192.922 177.312 194.104 177.625 195.094C177.938 196.083 178.432 196.844 179.109 197.375C179.786 197.906 180.672 198.172 181.766 198.172C182.901 198.172 183.802 197.906 184.469 197.375C185.146 196.844 185.63 196.083 185.922 195.094C186.224 194.104 186.375 192.922 186.375 191.547C186.375 189.484 186.031 187.854 185.344 186.656C184.656 185.458 183.474 184.859 181.797 184.859C180.682 184.859 179.781 185.13 179.094 185.672C178.417 186.214 177.922 186.984 177.609 187.984C177.307 188.984 177.156 190.172 177.156 191.547ZM207.453 189.875H203.688V203H197.578V189.875H195.234V186.875L197.703 185.375V185.078C197.703 183.547 197.906 182.302 198.312 181.344C198.719 180.375 199.365 179.661 200.25 179.203C201.135 178.745 202.292 178.516 203.719 178.516C204.635 178.516 205.464 178.589 206.203 178.734C206.953 178.88 207.734 179.089 208.547 179.359L207.234 183.312C206.932 183.229 206.594 183.156 206.219 183.094C205.854 183.031 205.458 183 205.031 183C204.562 183 204.219 183.146 204 183.438C203.792 183.719 203.688 184.182 203.688 184.828V185.297H207.453V189.875ZM220.672 189.875H216.906V203H210.797V189.875H208.453V186.875L210.922 185.375V185.078C210.922 183.547 211.125 182.302 211.531 181.344C211.938 180.375 212.583 179.661 213.469 179.203C214.354 178.745 215.51 178.516 216.938 178.516C217.854 178.516 218.682 178.589 219.422 178.734C220.172 178.88 220.953 179.089 221.766 179.359L220.453 183.312C220.151 183.229 219.812 183.156 219.438 183.094C219.073 183.031 218.677 183 218.25 183C217.781 183 217.438 183.146 217.219 183.438C217.01 183.719 216.906 184.182 216.906 184.828V185.297H220.672V189.875Z" fill="#FCB614"/>
<defs>
<filter id="filter0_d_57_293" x="0" y="0" width="279.5" height="278.5" filterUnits="userSpaceOnUse" color-interpolation-filters="sRGB">
<feFlood flood-opacity="0" result="BackgroundImageFix"/>
<feColorMatrix in="SourceAlpha" type="matrix" values="0 0 0 0 0 0 0 0 0 0 0 0 0 0 0 0 0 0 127 0" result="hardAlpha"/>
<feOffset/>
<feGaussianBlur stdDeviation="7"/>
<feComposite in2="hardAlpha" operator="out"/>
<feColorMatrix type="matrix" values="0 0 0 0 0.886275 0 0 0 0 0.0862745 0 0 0 0 0.356863 0 0 0 0.4 0"/>
<feBlend mode="normal" in2="BackgroundImageFix" result="effect1_dropShadow_57_293"/>
<feBlend mode="normal" in="SourceGraphic" in2="effect1_dropShadow_57_293" result="shape"/>
</filter>
</defs>
</svg>
